<?xml version="1.0" encoding="UTF-8" standalone="no"?>
<!DOCTYPE svg PUBLIC "-//W3C//DTD SVG 1.1//EN" "http://www.w3.org/Graphics/SVG/1.1/DTD/svg11.dtd">
<svg width="100%" height="100%" viewBox="0 0 609 609" version="1.1" xmlns="http://www.w3.org/2000/svg" xmlns:xlink="http://www.w3.org/1999/xlink" xml:space="preserve" xmlns:serif="http://www.serif.com/" style="fill-rule:evenodd;clip-rule:evenodd;stroke-miterlimit:22.926;">
    <g transform="matrix(1,0,0,1,-235.953267,-370.953267)">
        <g transform="matrix(0.764513,0,0,0.764513,-413.663378,63.869291)">
            <path d="M967.155,437.123L1527.671,437.123C1572.767,437.123 1609.663,474.019 1609.663,519.115L1609.663,1079.63C1609.663,1124.726 1572.767,1161.623 1527.671,1161.623L967.155,1161.623C922.059,1161.623 885.163,1124.726 885.163,1079.63L885.163,519.115C885.163,474.019 922.059,437.123 967.155,437.123Z" style="fill:rgb(9,5,9);stroke:rgb(28,25,23);stroke-width:3.09px;"/>
        </g>
        <g transform="matrix(0.764513,0,0,0.764513,-413.663378,-139.53105)">
            <path d="M1332.621,1018.461C1340.321,1018.461 1346.621,1012.161 1346.621,1004.461L1346.621,867.994C1346.621,858.256 1346.187,846.336 1332.621,846.336C1328.905,846.336 1325.194,847.881 1322.606,850.555L1250.003,925.533C1247.782,927.827 1247.388,927.962 1245.134,925.633L1172.434,850.555C1169.846,847.881 1166.135,846.336 1162.419,846.336C1145.359,846.336 1148.418,865.186 1148.418,876.619L1148.418,1004.461C1148.418,1012.161 1154.718,1018.461 1162.419,1018.461C1170.119,1018.461 1176.419,1012.161 1176.419,1004.461L1176.419,894.921L1236.397,956.862C1242.026,962.675 1253.015,962.675 1258.643,956.862L1318.621,894.921L1318.621,1004.461C1318.621,1012.161 1324.921,1018.461 1332.621,1018.461" style="fill:white;"/>
        </g>
        <g transform="matrix(0.764513,0,0,0.764513,-413.663378,353.500572)">
            <path d="M1170.744,533.047L1247.413,658.457L1324.083,533.047C1331.328,521.195 1359.421,528.923 1347.883,547.796L1261.803,688.6C1257.639,695.411 1252.663,698.652 1247.692,698.678C1242.294,698.706 1236.901,694.942 1232.56,687.841L1146.943,547.796C1135.406,528.923 1163.498,521.195 1170.744,533.047" style="fill:white;"/>
        </g>
        <g transform="matrix(0.764513,0,0,0.764513,-413.663378,109.674088)">
            <path d="M1216.216,718.705L1241.871,743.366L1222.169,763.353L1196.044,737.661C1187.891,729.437 1176.9,724.853 1165.317,724.853C1141.421,724.853 1122.05,744.224 1122.05,768.121C1122.05,792.018 1141.421,811.389 1165.317,811.389C1174.374,811.389 1183.346,808.421 1190.703,803.159L1245.468,752.457L1280.589,719.336C1293.868,706.812 1311.233,699.767 1329.509,699.767C1368.689,699.767 1400.453,731.531 1400.453,770.711C1400.453,809.891 1368.689,841.654 1329.509,841.654C1319.685,841.654 1309.976,839.634 1300.981,835.682C1292.587,831.994 1284.997,826.703 1278.61,820.127L1252.83,796.484L1272.532,776.497L1298.782,801.171C1306.936,809.395 1317.926,813.978 1329.509,813.978C1353.406,813.978 1372.776,794.608 1372.776,770.711C1372.776,746.814 1353.406,727.443 1329.509,727.443C1320.452,727.443 1311.48,730.411 1304.123,735.673L1249.358,786.374L1214.238,819.496C1200.958,832.02 1183.593,839.065 1165.317,839.065C1126.137,839.065 1094.373,807.301 1094.373,768.121C1094.373,728.941 1126.137,697.177 1165.317,697.177C1184.559,697.177 1202.817,704.908 1216.216,718.705" style="fill:rgb(35,170,172);"/>
        </g>
        <g transform="matrix(0.764513,0,0,0.764513,-413.663378,-348.695895)">
            <path d="M1152.449,1077.522C1151.216,1077.522 1150.005,1077.31 1148.818,1076.886C1147.63,1076.462 1146.551,1075.81 1145.58,1074.931L1147.684,1072.41C1148.425,1073.012 1149.184,1073.49 1149.963,1073.844C1150.742,1074.199 1151.593,1074.376 1152.519,1074.376C1153.259,1074.376 1153.833,1074.241 1154.242,1073.972C1154.651,1073.701 1154.855,1073.328 1154.855,1072.85L1154.855,1072.803C1154.855,1072.572 1154.812,1072.368 1154.728,1072.19C1154.643,1072.013 1154.481,1071.847 1154.242,1071.693C1153.999,1071.539 1153.668,1071.385 1153.244,1071.231C1152.82,1071.076 1152.264,1070.914 1151.586,1070.745C1150.765,1070.544 1150.024,1070.321 1149.358,1070.074C1148.694,1069.827 1148.128,1069.523 1147.665,1069.16C1147.203,1068.798 1146.84,1068.347 1146.586,1067.807C1146.331,1067.267 1146.204,1066.597 1146.204,1065.795L1146.204,1065.749C1146.204,1065.008 1146.343,1064.341 1146.616,1063.748C1146.894,1063.154 1147.28,1062.641 1147.777,1062.21C1148.274,1061.778 1148.872,1061.446 1149.562,1061.215C1150.252,1060.983 1151.015,1060.868 1151.848,1060.868C1153.036,1060.868 1154.126,1061.045 1155.121,1061.4C1156.116,1061.755 1157.029,1062.263 1157.862,1062.926L1156.012,1065.61C1155.287,1065.116 1154.578,1064.727 1153.884,1064.441C1153.19,1064.156 1152.496,1064.014 1151.802,1064.014C1151.108,1064.014 1150.588,1064.149 1150.241,1064.418C1149.894,1064.688 1149.72,1065.024 1149.72,1065.424L1149.72,1065.471C1149.72,1065.733 1149.77,1065.961 1149.87,1066.153C1149.971,1066.346 1150.152,1066.52 1150.414,1066.674C1150.68,1066.828 1151.039,1066.974 1151.493,1067.113C1151.952,1067.252 1152.526,1067.414 1153.221,1067.599C1154.042,1067.815 1154.774,1068.058 1155.414,1068.328C1156.054,1068.597 1156.598,1068.921 1157.037,1069.299C1157.477,1069.677 1157.812,1070.12 1158.036,1070.629C1158.259,1071.138 1158.371,1071.747 1158.371,1072.456L1158.371,1072.503C1158.371,1073.305 1158.224,1074.018 1157.935,1074.642C1157.642,1075.267 1157.238,1075.791 1156.717,1076.215C1156.197,1076.639 1155.572,1076.963 1154.851,1077.187C1154.13,1077.41 1153.328,1077.522 1152.449,1077.522ZM1191.581,1061.099L1195.421,1061.099L1199.677,1067.946L1203.933,1061.099L1207.773,1061.099L1207.773,1077.291L1204.257,1077.291L1204.257,1066.72L1199.7,1073.636L1199.607,1073.636L1195.097,1066.789L1195.097,1077.291L1191.581,1077.291L1191.581,1061.099ZM1251.068,1070.513L1248.917,1065.263L1246.765,1070.513L1251.068,1070.513ZM1247.321,1060.983L1250.605,1060.983L1257.544,1077.291L1253.82,1077.291L1252.34,1073.659L1245.493,1073.659L1244.013,1077.291L1240.381,1077.291L1247.321,1060.983ZM1297.323,1068.964C1298.203,1068.964 1298.877,1068.756 1299.347,1068.339C1299.818,1067.923 1300.053,1067.367 1300.053,1066.674L1300.053,1066.627C1300.053,1065.856 1299.806,1065.278 1299.313,1064.892C1298.819,1064.507 1298.133,1064.314 1297.254,1064.314L1293.715,1064.314L1293.715,1068.964L1297.323,1068.964ZM1290.153,1061.099L1297.555,1061.099C1299.606,1061.099 1301.179,1061.647 1302.274,1062.741C1303.199,1063.667 1303.661,1064.9 1303.661,1066.442L1303.661,1066.489C1303.661,1067.799 1303.341,1068.867 1302.701,1069.692C1302.062,1070.517 1301.225,1071.122 1300.192,1071.508L1304.147,1077.291L1299.984,1077.291L1296.514,1072.11L1293.715,1072.11L1293.715,1077.291L1290.153,1077.291L1290.153,1061.099ZM1340.758,1064.384L1335.831,1064.384L1335.831,1061.099L1349.247,1061.099L1349.247,1064.384L1344.32,1064.384L1344.32,1077.291L1340.758,1077.291L1340.758,1064.384Z" style="fill:white;fill-rule:nonzero;"/>
        </g>
    </g>
</svg>
