<?xml version="1.0" encoding="UTF-8" standalone="no"?>
<!DOCTYPE svg PUBLIC "-//W3C//DTD SVG 1.1//EN" "http://www.w3.org/Graphics/SVG/1.1/DTD/svg11.dtd">
<svg width="100%" height="100%" viewBox="0 0 806 806" version="1.1" xmlns="http://www.w3.org/2000/svg" xmlns:xlink="http://www.w3.org/1999/xlink" xml:space="preserve" xmlns:serif="http://www.serif.com/" style="fill-rule:evenodd;clip-rule:evenodd;stroke-miterlimit:22.926;">
    <g transform="matrix(1,0,0,1,-137.043575,-272.043575)">
        <g transform="matrix(-1.037555,0,0,1.037555,2743.29921,-154.393428)">
            <path d="M2123.548,437.123C1923.483,437.123 1761.298,599.307 1761.298,799.373C1761.298,999.438 1923.483,1161.623 2123.548,1161.623C2323.614,1161.623 2485.799,999.438 2485.799,799.373C2485.799,599.307 2323.614,437.123 2123.548,437.123Z" style="fill:white;stroke:rgb(28,25,23);stroke-width:2.28px;"/>
        </g>
        <g transform="matrix(1.037555,0,0,1.037555,-1663.29921,-430.437331)">
            <path d="M2208.756,1018.461C2216.457,1018.461 2222.757,1012.161 2222.757,1004.461L2222.757,867.994C2222.757,858.256 2222.322,846.336 2208.757,846.336C2205.04,846.336 2201.33,847.881 2198.741,850.555L2126.138,925.533C2123.918,927.827 2123.524,927.962 2121.269,925.633L2048.57,850.555C2045.981,847.881 2042.271,846.336 2038.554,846.336C2021.494,846.336 2024.554,865.186 2024.554,876.619L2024.554,1004.461C2024.554,1012.161 2030.854,1018.461 2038.554,1018.461C2046.254,1018.461 2052.554,1012.161 2052.554,1004.461L2052.554,894.921L2112.532,956.862C2118.162,962.675 2129.15,962.675 2134.778,956.862L2194.756,894.921L2194.756,1004.461C2194.756,1012.161 2201.056,1018.461 2208.756,1018.461" style="fill:rgb(9,5,9);"/>
        </g>
        <g transform="matrix(1.037555,0,0,1.037555,-1663.29921,238.678426)">
            <path d="M2046.879,533.047L2123.549,658.457L2200.218,533.047C2207.464,521.195 2235.556,528.923 2224.019,547.796L2137.938,688.6C2133.774,695.411 2128.798,698.652 2123.828,698.678C2118.429,698.706 2113.036,694.942 2108.695,687.841L2023.079,547.796C2011.541,528.923 2039.634,521.195 2046.879,533.047" style="fill:rgb(9,5,9);"/>
        </g>
        <g transform="matrix(1.037555,0,0,1.037555,-1663.29921,-714.304505)">
            <path d="M2028.585,1077.522C2027.351,1077.522 2026.141,1077.31 2024.953,1076.886C2023.766,1076.462 2022.686,1075.81 2021.715,1074.931L2023.82,1072.41C2024.56,1073.012 2025.32,1073.49 2026.098,1073.844C2026.877,1074.199 2027.729,1074.376 2028.654,1074.376C2029.395,1074.376 2029.969,1074.241 2030.378,1073.972C2030.786,1073.701 2030.991,1073.328 2030.991,1072.85L2030.991,1072.803C2030.991,1072.572 2030.948,1072.368 2030.863,1072.19C2030.778,1072.013 2030.617,1071.847 2030.378,1071.693C2030.135,1071.539 2029.803,1071.385 2029.379,1071.231C2028.955,1071.076 2028.4,1070.914 2027.721,1070.745C2026.9,1070.544 2026.16,1070.321 2025.493,1070.074C2024.83,1069.827 2024.263,1069.523 2023.801,1069.16C2023.338,1068.798 2022.976,1068.347 2022.721,1067.807C2022.467,1067.267 2022.339,1066.597 2022.339,1065.795L2022.339,1065.749C2022.339,1065.008 2022.478,1064.341 2022.752,1063.748C2023.03,1063.154 2023.415,1062.641 2023.912,1062.21C2024.41,1061.778 2025.007,1061.446 2025.697,1061.215C2026.387,1060.983 2027.151,1060.868 2027.984,1060.868C2029.171,1060.868 2030.262,1061.045 2031.256,1061.4C2032.251,1061.755 2033.165,1062.263 2033.997,1062.926L2032.147,1065.61C2031.422,1065.116 2030.713,1064.727 2030.019,1064.441C2029.325,1064.156 2028.631,1064.014 2027.937,1064.014C2027.243,1064.014 2026.723,1064.149 2026.376,1064.418C2026.029,1064.688 2025.856,1065.024 2025.856,1065.424L2025.856,1065.471C2025.856,1065.733 2025.905,1065.961 2026.006,1066.153C2026.106,1066.346 2026.287,1066.52 2026.549,1066.674C2026.815,1066.828 2027.174,1066.974 2027.629,1067.113C2028.088,1067.252 2028.662,1067.414 2029.356,1067.599C2030.177,1067.815 2030.909,1068.058 2031.549,1068.328C2032.189,1068.597 2032.733,1068.921 2033.172,1069.299C2033.612,1069.677 2033.947,1070.12 2034.171,1070.629C2034.395,1071.138 2034.506,1071.747 2034.506,1072.456L2034.506,1072.503C2034.506,1073.305 2034.36,1074.018 2034.071,1074.642C2033.778,1075.267 2033.373,1075.791 2032.852,1076.215C2032.332,1076.639 2031.707,1076.963 2030.987,1077.187C2030.266,1077.41 2029.464,1077.522 2028.585,1077.522ZM2067.716,1061.099L2071.556,1061.099L2075.812,1067.946L2080.068,1061.099L2083.908,1061.099L2083.908,1077.291L2080.392,1077.291L2080.392,1066.72L2075.835,1073.636L2075.743,1073.636L2071.232,1066.789L2071.232,1077.291L2067.716,1077.291L2067.716,1061.099ZM2127.203,1070.513L2125.052,1065.263L2122.901,1070.513L2127.203,1070.513ZM2123.456,1060.983L2126.74,1060.983L2133.68,1077.291L2129.956,1077.291L2128.475,1073.659L2121.628,1073.659L2120.148,1077.291L2116.517,1077.291L2123.456,1060.983ZM2173.459,1068.964C2174.338,1068.964 2175.013,1068.756 2175.483,1068.339C2175.953,1067.923 2176.188,1067.367 2176.188,1066.674L2176.188,1066.627C2176.188,1065.856 2175.942,1065.278 2175.448,1064.892C2174.955,1064.507 2174.268,1064.314 2173.389,1064.314L2169.851,1064.314L2169.851,1068.964L2173.459,1068.964ZM2166.288,1061.099L2173.69,1061.099C2175.741,1061.099 2177.314,1061.647 2178.409,1062.741C2179.334,1063.667 2179.797,1064.9 2179.797,1066.442L2179.797,1066.489C2179.797,1067.799 2179.477,1068.867 2178.837,1069.692C2178.197,1070.517 2177.36,1071.122 2176.327,1071.508L2180.282,1077.291L2176.119,1077.291L2172.649,1072.11L2169.851,1072.11L2169.851,1077.291L2166.288,1077.291L2166.288,1061.099ZM2216.893,1064.384L2211.966,1064.384L2211.966,1061.099L2225.382,1061.099L2225.382,1064.384L2220.455,1064.384L2220.455,1077.291L2216.893,1077.291L2216.893,1064.384Z" style="fill:rgb(142,140,140);fill-rule:nonzero;"/>
        </g>
        <g transform="matrix(1.037555,0,0,1.037555,-1663.29921,-92.229644)">
            <path d="M2092.352,718.705L2118.006,743.366L2098.305,763.353L2072.179,737.661C2064.026,729.437 2053.036,724.853 2041.453,724.853C2017.556,724.853 1998.185,744.224 1998.185,768.121C1998.185,792.018 2017.556,811.389 2041.453,811.389C2050.51,811.389 2059.481,808.421 2066.839,803.159L2121.604,752.457L2156.724,719.336C2170.004,706.812 2187.369,699.767 2205.644,699.767C2244.824,699.767 2276.588,731.531 2276.588,770.711C2276.588,809.891 2244.824,841.654 2205.644,841.654C2195.82,841.654 2186.112,839.634 2177.116,835.682C2168.722,831.994 2161.132,826.703 2154.745,820.127L2128.966,796.484L2148.667,776.497L2174.918,801.171C2183.071,809.395 2194.061,813.978 2205.644,813.978C2229.541,813.978 2248.912,794.608 2248.912,770.711C2248.912,746.814 2229.541,727.443 2205.644,727.443C2196.587,727.443 2187.616,730.411 2180.258,735.673L2125.493,786.374L2090.373,819.496C2077.093,832.02 2059.728,839.065 2041.453,839.065C2002.273,839.065 1970.509,807.301 1970.509,768.121C1970.509,728.941 2002.273,697.177 2041.453,697.177C2060.695,697.177 2078.953,704.908 2092.352,718.705" style="fill:rgb(35,170,172);"/>
        </g>
    </g>
</svg>
