<?xml version="1.0" encoding="UTF-8" standalone="no"?>
<!DOCTYPE svg PUBLIC "-//W3C//DTD SVG 1.1//EN" "http://www.w3.org/Graphics/SVG/1.1/DTD/svg11.dtd">
<svg width="100%" height="100%" viewBox="0 0 976 151" version="1.1" xmlns="http://www.w3.org/2000/svg" xmlns:xlink="http://www.w3.org/1999/xlink" xml:space="preserve" xmlns:serif="http://www.serif.com/" style="fill-rule:evenodd;clip-rule:evenodd;stroke-linejoin:round;stroke-miterlimit:2;">
    <g transform="matrix(1,0,0,1,-51.875518,-599.827641)">
        <g transform="matrix(0.440496,0,0,0.440496,-67.110925,-62.531701)">
            <path d="M1240.767,1837.244C1255.615,1837.244 1267.764,1825.096 1267.764,1810.248L1267.764,1547.103C1267.764,1528.324 1266.926,1505.341 1240.768,1505.341C1233.601,1505.341 1226.446,1508.319 1221.455,1513.475L1081.457,1658.054C1077.175,1662.476 1076.415,1662.736 1072.068,1658.247L931.883,1513.475C926.892,1508.319 919.737,1505.341 912.571,1505.341C879.675,1505.341 885.575,1541.688 885.575,1563.735L885.575,1810.248C885.575,1825.096 897.723,1837.244 912.57,1837.244C927.419,1837.244 939.567,1825.096 939.567,1810.248L939.567,1599.025L1055.221,1718.465C1066.076,1729.674 1087.264,1729.673 1098.117,1718.465L1213.771,1599.025L1213.771,1810.248C1213.771,1825.096 1225.919,1837.244 1240.767,1837.244" style="fill:rgb(9,5,9);"/>
        </g>
        <g transform="matrix(0.440496,0,0,0.440496,-67.110925,-66.719588)">
            <path d="M2138.93,1527.755L2286.769,1769.579L2434.609,1527.755C2448.58,1504.902 2502.75,1519.803 2480.502,1556.196L2314.516,1827.704C2306.487,1840.837 2296.892,1847.086 2287.307,1847.136C2276.897,1847.19 2266.498,1839.933 2258.128,1826.24L2093.036,1556.196C2070.788,1519.803 2124.958,1504.902 2138.93,1527.755" style="fill:rgb(9,5,9);"/>
        </g>
        <g transform="matrix(0.440496,0,0,0.440496,-67.110925,-59.864848)">
            <path d="M1495.897,1497.612C1541.503,1497.612 1584.581,1515.987 1616.125,1548.509L1683.867,1613.976L1683.867,1613.976L1645.258,1653.146L1576.397,1585.278C1555.857,1564.559 1527.377,1551.724 1495.897,1551.724C1433.291,1551.724 1382.538,1602.476 1382.538,1665.082C1382.538,1727.688 1433.291,1778.44 1495.897,1778.44C1520.615,1778.44 1544.108,1770.073 1562.735,1756.644L1659.433,1667.118L1697.757,1631.638L1784.113,1550.197C1815.317,1520.441 1856.468,1503.979 1899.617,1503.979C1992.108,1503.979 2067.088,1578.958 2067.088,1671.449C2067.088,1763.94 1992.108,1838.919 1899.617,1838.919C1876.084,1838.919 1853.225,1834.026 1832.275,1824.822C1812.626,1816.189 1794.656,1803.762 1779.388,1788.022L1711.646,1722.555L1711.647,1722.555L1750.256,1683.385L1819.117,1751.253C1839.657,1771.971 1868.137,1784.807 1899.617,1784.807C1962.223,1784.807 2012.976,1734.055 2012.976,1671.449C2012.976,1608.843 1962.223,1558.09 1899.617,1558.09C1874.899,1558.09 1851.406,1566.458 1832.779,1579.887L1736.08,1669.412L1697.757,1704.893L1611.401,1786.334C1580.197,1816.089 1539.046,1832.552 1495.897,1832.552C1403.405,1832.552 1328.426,1757.573 1328.426,1665.082C1328.426,1572.591 1403.405,1497.612 1495.897,1497.612" style="fill:rgb(35,170,172);"/>
        </g>
        <g transform="matrix(0.848728,0,0,0.848728,-1371.230354,-985.765637)">
            <path d="M1707.733,1947.382C1702.169,1947.382 1696.71,1946.426 1691.355,1944.514C1686,1942.601 1681.132,1939.663 1676.751,1935.7L1686.244,1924.329C1689.582,1927.041 1693.007,1929.197 1696.518,1930.796C1700.031,1932.396 1703.873,1933.196 1708.046,1933.196C1711.384,1933.196 1713.974,1932.587 1715.817,1931.37C1717.66,1930.153 1718.581,1928.467 1718.581,1926.311L1718.581,1926.102C1718.581,1925.059 1718.39,1924.138 1718.007,1923.338C1717.625,1922.539 1716.895,1921.791 1715.817,1921.095C1714.722,1920.4 1713.226,1919.704 1711.314,1919.009C1709.402,1918.313 1706.898,1917.583 1703.838,1916.818C1700.135,1915.914 1696.797,1914.906 1693.79,1913.793C1690.799,1912.681 1688.243,1911.307 1686.157,1909.673C1684.07,1908.038 1682.436,1906.004 1681.289,1903.571C1680.142,1901.136 1679.568,1898.111 1679.568,1894.495L1679.568,1894.286C1679.568,1890.948 1680.193,1887.941 1681.428,1885.263C1682.68,1882.586 1684.418,1880.273 1686.661,1878.326C1688.904,1876.379 1691.599,1874.883 1694.71,1873.84C1697.823,1872.797 1701.265,1872.276 1705.02,1872.276C1710.375,1872.276 1715.295,1873.075 1719.781,1874.675C1724.266,1876.275 1728.387,1878.569 1732.142,1881.559L1723.797,1893.66C1720.529,1891.435 1717.33,1889.679 1714.2,1888.393C1711.071,1887.106 1707.941,1886.463 1704.812,1886.463C1701.682,1886.463 1699.335,1887.071 1697.771,1888.288C1696.206,1889.505 1695.424,1891.018 1695.424,1892.826L1695.424,1893.034C1695.424,1894.216 1695.649,1895.243 1696.101,1896.112C1696.554,1896.981 1697.371,1897.763 1698.553,1898.459C1699.753,1899.154 1701.37,1899.815 1703.421,1900.441C1705.49,1901.066 1708.08,1901.797 1711.21,1902.631C1714.913,1903.605 1718.216,1904.7 1721.102,1905.918C1723.988,1907.134 1726.44,1908.595 1728.422,1910.299C1730.404,1912.002 1731.916,1914.002 1732.925,1916.297C1733.933,1918.592 1734.437,1921.339 1734.437,1924.537L1734.437,1924.746C1734.437,1928.362 1733.777,1931.579 1732.473,1934.395C1731.152,1937.212 1729.326,1939.576 1726.979,1941.489C1724.632,1943.402 1721.815,1944.861 1718.564,1945.87C1715.313,1946.879 1711.697,1947.382 1707.733,1947.382ZM1771.495,1873.319L1788.812,1873.319L1808.006,1904.196L1827.2,1873.319L1844.516,1873.319L1844.516,1946.339L1828.66,1946.339L1828.66,1898.667L1808.11,1929.857L1807.693,1929.857L1787.351,1898.98L1787.351,1946.339L1771.495,1946.339L1771.495,1873.319ZM1927.056,1915.775L1917.354,1892.096L1907.653,1915.775L1927.056,1915.775ZM1910.156,1872.797L1924.969,1872.797L1956.263,1946.339L1939.469,1946.339L1932.793,1929.962L1901.915,1929.962L1895.239,1946.339L1878.861,1946.339L1910.156,1872.797ZM1767.795,2000.567C1771.759,2000.567 1774.801,1999.629 1776.922,1997.751C1779.043,1995.873 1780.104,1993.369 1780.104,1990.24L1780.104,1990.031C1780.104,1986.554 1778.991,1983.947 1776.766,1982.208C1774.54,1980.469 1771.446,1979.6 1767.481,1979.6L1751.521,1979.6L1751.521,2000.567L1767.795,2000.567ZM1735.457,1965.1L1768.838,1965.1C1778.087,1965.1 1785.18,1967.569 1790.118,1972.506C1794.291,1976.679 1796.377,1982.243 1796.377,1989.197L1796.377,1989.405C1796.377,1995.317 1794.934,2000.133 1792.048,2003.853C1789.162,2007.574 1785.389,2010.304 1780.73,2012.042L1798.567,2038.121L1779.791,2038.121L1764.143,2014.755L1751.521,2014.755L1751.521,2038.121L1735.457,2038.121L1735.457,1965.1ZM1850.96,1979.913L1828.741,1979.913L1828.741,1965.1L1889.244,1965.1L1889.244,1979.913L1867.025,1979.913L1867.025,2038.121L1850.96,2038.121L1850.96,1979.913Z" style="fill:rgb(142,140,140);fill-rule:nonzero;"/>
        </g>
    </g>
</svg>
