<?xml version="1.0" encoding="UTF-8" standalone="no"?>
<!DOCTYPE svg PUBLIC "-//W3C//DTD SVG 1.1//EN" "http://www.w3.org/Graphics/SVG/1.1/DTD/svg11.dtd">
<svg width="100%" height="100%" viewBox="0 0 976 336" version="1.1" xmlns="http://www.w3.org/2000/svg" xmlns:xlink="http://www.w3.org/1999/xlink" xml:space="preserve" xmlns:serif="http://www.serif.com/" style="fill-rule:evenodd;clip-rule:evenodd;stroke-linejoin:round;stroke-miterlimit:2;">
    <g transform="matrix(1,0,0,1,-52.125979,-507.092633)">
        <g transform="matrix(0.609601,0,0,0.609601,-487.470232,-343.423936)">
            <path d="M1240.767,1837.244C1255.615,1837.244 1267.764,1825.096 1267.764,1810.248L1267.764,1547.103C1267.764,1528.324 1266.926,1505.341 1240.768,1505.341C1233.601,1505.341 1226.446,1508.319 1221.455,1513.475L1081.457,1658.054C1077.175,1662.476 1076.415,1662.736 1072.068,1658.247L931.883,1513.475C926.892,1508.319 919.737,1505.341 912.571,1505.341C879.675,1505.341 885.575,1541.688 885.575,1563.735L885.575,1810.248C885.575,1825.096 897.723,1837.244 912.57,1837.244C927.419,1837.244 939.567,1825.096 939.567,1810.248L939.567,1599.025L1055.221,1718.465C1066.076,1729.674 1087.264,1729.673 1098.117,1718.465L1213.771,1599.025L1213.771,1810.248C1213.771,1825.096 1225.919,1837.244 1240.767,1837.244" style="fill:rgb(9,5,9);"/>
        </g>
        <g transform="matrix(0.609601,0,0,0.609601,-487.470232,-349.219532)">
            <path d="M2138.93,1527.755L2286.769,1769.579L2434.609,1527.755C2448.58,1504.902 2502.75,1519.803 2480.502,1556.196L2314.516,1827.704C2306.487,1840.837 2296.892,1847.086 2287.307,1847.136C2276.897,1847.19 2266.498,1839.933 2258.128,1826.24L2093.036,1556.196C2070.788,1519.803 2124.958,1504.902 2138.93,1527.755" style="fill:rgb(9,5,9);"/>
        </g>
        <g transform="matrix(0.609601,0,0,0.609601,-487.470232,-339.733291)">
            <path d="M1495.897,1497.612C1541.503,1497.612 1584.581,1515.987 1616.125,1548.509L1683.867,1613.976L1683.867,1613.976L1645.258,1653.146L1576.397,1585.278C1555.857,1564.559 1527.377,1551.724 1495.897,1551.724C1433.291,1551.724 1382.538,1602.476 1382.538,1665.082C1382.538,1727.688 1433.291,1778.44 1495.897,1778.44C1520.615,1778.44 1544.108,1770.073 1562.735,1756.644L1659.433,1667.118L1697.757,1631.638L1784.113,1550.197C1815.317,1520.441 1856.468,1503.979 1899.617,1503.979C1992.108,1503.979 2067.088,1578.958 2067.088,1671.449C2067.088,1763.94 1992.108,1838.919 1899.617,1838.919C1876.084,1838.919 1853.225,1834.026 1832.275,1824.822C1812.626,1816.189 1794.656,1803.762 1779.388,1788.022L1711.646,1722.555L1711.647,1722.555L1750.256,1683.385L1819.117,1751.253C1839.657,1771.971 1868.137,1784.807 1899.617,1784.807C1962.223,1784.807 2012.976,1734.055 2012.976,1671.449C2012.976,1608.843 1962.223,1558.09 1899.617,1558.09C1874.899,1558.09 1851.406,1566.458 1832.779,1579.887L1736.08,1669.412L1697.757,1704.893L1611.401,1786.334C1580.197,1816.089 1539.046,1832.552 1495.897,1832.552C1403.405,1832.552 1328.426,1757.573 1328.426,1665.082C1328.426,1572.591 1403.405,1497.612 1495.897,1497.612" style="fill:rgb(35,170,172);"/>
        </g>
        <g transform="matrix(0.609601,0,0,0.609601,-487.470232,-634.248122)">
            <path d="M1256.881,1947.382C1251.318,1947.382 1245.859,1946.426 1240.504,1944.514C1235.149,1942.601 1230.281,1939.663 1225.899,1935.7L1235.392,1924.329C1238.731,1927.041 1242.155,1929.197 1245.667,1930.796C1249.18,1932.396 1253.022,1933.196 1257.195,1933.196C1260.533,1933.196 1263.123,1932.587 1264.966,1931.37C1266.809,1930.153 1267.73,1928.467 1267.73,1926.311L1267.73,1926.102C1267.73,1925.059 1267.539,1924.138 1267.156,1923.338C1266.774,1922.539 1266.044,1921.791 1264.966,1921.095C1263.871,1920.4 1262.375,1919.704 1260.463,1919.009C1258.551,1918.313 1256.047,1917.583 1252.987,1916.818C1249.284,1915.914 1245.946,1914.906 1242.938,1913.793C1239.948,1912.681 1237.392,1911.307 1235.305,1909.673C1233.219,1908.038 1231.585,1906.004 1230.438,1903.571C1229.29,1901.136 1228.716,1898.111 1228.716,1894.495L1228.716,1894.286C1228.716,1890.948 1229.342,1887.941 1230.576,1885.263C1231.828,1882.586 1233.567,1880.273 1235.81,1878.326C1238.053,1876.379 1240.747,1874.883 1243.859,1873.84C1246.971,1872.797 1250.414,1872.276 1254.169,1872.276C1259.524,1872.276 1264.444,1873.075 1268.93,1874.675C1273.415,1876.275 1277.536,1878.569 1281.291,1881.559L1272.946,1893.66C1269.678,1891.435 1266.478,1889.679 1263.349,1888.393C1260.219,1887.106 1257.09,1886.463 1253.961,1886.463C1250.831,1886.463 1248.484,1887.071 1246.92,1888.288C1245.354,1889.505 1244.572,1891.018 1244.572,1892.826L1244.572,1893.034C1244.572,1894.216 1244.798,1895.243 1245.25,1896.112C1245.702,1896.981 1246.52,1897.763 1247.702,1898.459C1248.902,1899.154 1250.518,1899.815 1252.57,1900.441C1254.639,1901.066 1257.229,1901.797 1260.359,1902.631C1264.062,1903.605 1267.365,1904.7 1270.251,1905.918C1273.137,1907.134 1275.589,1908.595 1277.571,1910.299C1279.553,1912.002 1281.065,1914.002 1282.073,1916.297C1283.082,1918.592 1283.586,1921.339 1283.586,1924.537L1283.586,1924.746C1283.586,1928.362 1282.926,1931.579 1281.621,1934.395C1280.3,1937.212 1278.475,1939.576 1276.127,1941.489C1273.78,1943.402 1270.964,1944.861 1267.713,1945.87C1264.461,1946.879 1260.845,1947.382 1256.881,1947.382ZM1433.357,1873.319L1450.673,1873.319L1469.868,1904.196L1489.061,1873.319L1506.378,1873.319L1506.378,1946.339L1490.522,1946.339L1490.522,1898.667L1469.972,1929.857L1469.554,1929.857L1449.213,1898.98L1449.213,1946.339L1433.357,1946.339L1433.357,1873.319ZM1701.63,1915.775L1691.928,1892.096L1682.227,1915.775L1701.63,1915.775ZM1684.731,1872.797L1699.544,1872.797L1730.838,1946.339L1714.043,1946.339L1707.367,1929.962L1676.49,1929.962L1669.813,1946.339L1653.436,1946.339L1684.731,1872.797ZM1910.234,1908.786C1914.198,1908.786 1917.24,1907.847 1919.361,1905.969C1921.482,1904.092 1922.543,1901.588 1922.543,1898.459L1922.543,1898.25C1922.543,1894.773 1921.43,1892.165 1919.205,1890.427C1916.98,1888.688 1913.885,1887.819 1909.921,1887.819L1893.961,1887.819L1893.961,1908.786L1910.234,1908.786ZM1877.896,1873.319L1911.277,1873.319C1920.526,1873.319 1927.619,1875.788 1932.557,1880.725C1936.73,1884.898 1938.816,1890.461 1938.816,1897.416L1938.816,1897.624C1938.816,1903.535 1937.373,1908.351 1934.487,1912.072C1931.601,1915.792 1927.828,1918.522 1923.169,1920.261L1941.007,1946.339L1922.23,1946.339L1906.583,1922.973L1893.961,1922.973L1893.961,1946.339L1877.896,1946.339L1877.896,1873.319ZM2106.112,1888.131L2083.893,1888.131L2083.893,1873.319L2144.396,1873.319L2144.396,1888.131L2122.177,1888.131L2122.177,1946.339L2106.112,1946.339L2106.112,1888.131Z" style="fill:rgb(142,140,140);fill-rule:nonzero;"/>
        </g>
        <g transform="matrix(0.609601,0,0,0.609601,-487.470232,-29.110247)">
            <path d="M1242.372,1397.069L1250.161,1397.069L1258.793,1410.956L1267.426,1397.069L1275.214,1397.069L1275.214,1429.91L1268.083,1429.91L1268.083,1408.47L1258.84,1422.497L1258.652,1422.497L1249.504,1408.61L1249.504,1429.91L1242.372,1429.91L1242.372,1397.069ZM1336.749,1423.812C1338.189,1423.812 1339.517,1423.545 1340.737,1423.013C1341.957,1422.482 1342.998,1421.747 1343.857,1420.809C1344.718,1419.871 1345.39,1418.784 1345.875,1417.548C1346.36,1416.312 1346.602,1414.991 1346.602,1413.584L1346.602,1413.49C1346.602,1412.082 1346.36,1410.753 1345.875,1409.502C1345.39,1408.251 1344.702,1407.156 1343.81,1406.218C1342.919,1405.279 1341.863,1404.536 1340.644,1403.989C1339.424,1403.442 1338.094,1403.168 1336.656,1403.168C1335.186,1403.168 1333.849,1403.434 1332.644,1403.966C1331.44,1404.497 1330.408,1405.232 1329.548,1406.171C1328.688,1407.109 1328.015,1408.196 1327.531,1409.431C1327.046,1410.667 1326.803,1411.988 1326.803,1413.396L1326.803,1413.49C1326.803,1414.897 1327.046,1416.226 1327.531,1417.478C1328.015,1418.729 1328.704,1419.824 1329.595,1420.762C1330.486,1421.7 1331.534,1422.443 1332.738,1422.99C1333.943,1423.538 1335.28,1423.812 1336.749,1423.812ZM1336.656,1430.473C1334.122,1430.473 1331.792,1430.028 1329.665,1429.137C1327.538,1428.245 1325.701,1427.041 1324.153,1425.524C1322.604,1424.007 1321.4,1422.224 1320.54,1420.175C1319.68,1418.127 1319.25,1415.929 1319.25,1413.584L1319.25,1413.49C1319.25,1411.144 1319.687,1408.947 1320.564,1406.898C1321.439,1404.849 1322.651,1403.051 1324.2,1401.503C1325.747,1399.954 1327.593,1398.734 1329.735,1397.843C1331.878,1396.952 1334.216,1396.506 1336.749,1396.506C1339.283,1396.506 1341.613,1396.952 1343.74,1397.843C1345.867,1398.734 1347.705,1399.938 1349.253,1401.456C1350.801,1402.972 1352.006,1404.755 1352.865,1406.804C1353.726,1408.853 1354.156,1411.05 1354.156,1413.396L1354.156,1413.49C1354.156,1415.836 1353.718,1418.033 1352.842,1420.082C1351.966,1422.13 1350.754,1423.928 1349.206,1425.477C1347.658,1427.025 1345.812,1428.245 1343.67,1429.137C1341.527,1430.028 1339.189,1430.473 1336.656,1430.473ZM1395.376,1397.069L1403.352,1397.069L1411.938,1420.199L1420.523,1397.069L1428.311,1397.069L1415.034,1430.145L1408.654,1430.145L1395.376,1397.069ZM1471.315,1397.069L1478.54,1397.069L1478.54,1429.91L1471.315,1429.91L1471.315,1397.069ZM1524.358,1397.069L1531.02,1397.069L1546.409,1417.29L1546.409,1397.069L1553.54,1397.069L1553.54,1429.91L1547.394,1429.91L1531.49,1409.033L1531.49,1429.91L1524.358,1429.91L1524.358,1397.069ZM1614.841,1430.473C1612.277,1430.473 1609.938,1430.051 1607.827,1429.207C1605.716,1428.362 1603.902,1427.189 1602.385,1425.688C1600.868,1424.187 1599.688,1422.404 1598.843,1420.34C1597.998,1418.275 1597.576,1416.023 1597.576,1413.584L1597.576,1413.49C1597.576,1411.144 1598.006,1408.947 1598.866,1406.898C1599.726,1404.849 1600.923,1403.051 1602.455,1401.503C1603.988,1399.954 1605.802,1398.734 1607.898,1397.843C1609.993,1396.952 1612.292,1396.506 1614.794,1396.506C1616.264,1396.506 1617.602,1396.608 1618.806,1396.811C1620.01,1397.014 1621.128,1397.303 1622.16,1397.679C1623.193,1398.054 1624.162,1398.523 1625.069,1399.086C1625.976,1399.649 1626.852,1400.29 1627.697,1401.01L1623.146,1406.499C1622.52,1405.967 1621.894,1405.498 1621.269,1405.092C1620.643,1404.685 1619.995,1404.341 1619.322,1404.059C1618.649,1403.778 1617.923,1403.559 1617.14,1403.403C1616.358,1403.246 1615.498,1403.168 1614.56,1403.168C1613.246,1403.168 1612.019,1403.442 1610.877,1403.989C1609.736,1404.536 1608.734,1405.279 1607.874,1406.202C1607.014,1407.125 1606.341,1408.203 1605.857,1409.447C1605.372,1410.682 1605.129,1412.012 1605.129,1413.419L1605.129,1413.513C1605.129,1415.015 1605.372,1416.406 1605.857,1417.673C1606.341,1418.947 1607.03,1420.05 1607.921,1420.988C1608.812,1421.927 1609.86,1422.662 1611.064,1423.178C1612.269,1423.694 1613.606,1423.952 1615.076,1423.952C1617.765,1423.952 1620.033,1423.287 1621.879,1421.966L1621.879,1417.243L1614.607,1417.243L1614.607,1411.003L1628.869,1411.003L1628.869,1425.265C1627.18,1426.705 1625.171,1427.932 1622.841,1428.949C1620.511,1429.965 1617.844,1430.473 1614.841,1430.473ZM1744.067,1423.577C1745.661,1423.577 1746.913,1423.287 1747.819,1422.708C1748.727,1422.13 1749.18,1421.231 1749.18,1420.011L1749.18,1419.917C1749.18,1418.823 1748.758,1417.955 1747.913,1417.313C1747.069,1416.673 1745.708,1416.352 1743.832,1416.352L1735.481,1416.352L1735.481,1423.577L1744.067,1423.577ZM1742.143,1410.346C1743.738,1410.346 1745.005,1410.073 1745.943,1409.525C1746.881,1408.978 1747.35,1408.094 1747.35,1406.875L1747.35,1406.781C1747.35,1405.686 1746.944,1404.849 1746.13,1404.271C1745.318,1403.692 1744.145,1403.403 1742.612,1403.403L1735.481,1403.403L1735.481,1410.346L1742.143,1410.346ZM1728.443,1397.069L1743.667,1397.069C1747.445,1397.069 1750.298,1398.038 1752.238,1399.978C1753.732,1401.479 1754.482,1403.34 1754.482,1405.561L1754.482,1405.655C1754.482,1406.593 1754.364,1407.422 1754.13,1408.141C1753.895,1408.861 1753.59,1409.51 1753.199,1410.088C1752.809,1410.667 1752.363,1411.175 1751.847,1411.613C1751.339,1412.051 1750.783,1412.427 1750.196,1412.739C1752.089,1413.458 1753.59,1414.436 1754.677,1415.671C1755.764,1416.907 1756.311,1418.619 1756.311,1420.809L1756.311,1420.902C1756.311,1422.404 1756.022,1423.717 1755.444,1424.843C1754.865,1425.97 1754.036,1426.908 1752.965,1427.659C1751.886,1428.409 1750.588,1428.972 1749.079,1429.347C1747.561,1429.723 1745.881,1429.91 1744.043,1429.91L1728.443,1429.91L1728.443,1397.069ZM1814.469,1413.021C1816.252,1413.021 1817.62,1412.598 1818.574,1411.754C1819.528,1410.909 1820.005,1409.783 1820.005,1408.376L1820.005,1408.282C1820.005,1406.718 1819.504,1405.545 1818.503,1404.763C1817.503,1403.981 1816.111,1403.59 1814.328,1403.59L1807.149,1403.59L1807.149,1413.021L1814.469,1413.021ZM1799.925,1397.069L1814.938,1397.069C1819.098,1397.069 1822.288,1398.179 1824.509,1400.4C1826.385,1402.277 1827.324,1404.779 1827.324,1407.907L1827.324,1408.001C1827.324,1410.659 1826.675,1412.825 1825.377,1414.499C1824.079,1416.172 1822.382,1417.399 1820.287,1418.181L1828.31,1429.91L1819.865,1429.91L1812.827,1419.401L1807.149,1419.401L1807.149,1429.91L1799.925,1429.91L1799.925,1397.069ZM1890.314,1416.164L1885.951,1405.514L1881.587,1416.164L1890.314,1416.164ZM1882.713,1396.834L1889.376,1396.834L1903.451,1429.91L1895.897,1429.91L1892.894,1422.544L1879.007,1422.544L1876.005,1429.91L1868.638,1429.91L1882.713,1396.834ZM1946.126,1397.069L1952.788,1397.069L1968.176,1417.29L1968.176,1397.069L1975.308,1397.069L1975.308,1429.91L1969.162,1429.91L1953.257,1409.033L1953.257,1429.91L1946.126,1429.91L1946.126,1397.069ZM2033.606,1423.389C2035.076,1423.389 2036.421,1423.155 2037.64,1422.685C2038.861,1422.216 2039.901,1421.544 2040.761,1420.668C2041.621,1419.792 2042.293,1418.76 2042.778,1417.572C2043.263,1416.383 2043.506,1415.053 2043.506,1413.584L2043.506,1413.49C2043.506,1412.051 2043.263,1410.721 2042.778,1409.502C2042.293,1408.282 2041.621,1407.234 2040.761,1406.358C2039.901,1405.482 2038.861,1404.803 2037.64,1404.318C2036.421,1403.833 2035.076,1403.59 2033.606,1403.59L2028.023,1403.59L2028.023,1423.389L2033.606,1423.389ZM2020.798,1397.069L2033.606,1397.069C2036.171,1397.069 2038.524,1397.483 2040.667,1398.312C2042.81,1399.141 2044.655,1400.29 2046.203,1401.761C2047.751,1403.231 2048.948,1404.959 2049.792,1406.945C2050.637,1408.931 2051.059,1411.081 2051.059,1413.396L2051.059,1413.49C2051.059,1415.804 2050.637,1417.962 2049.792,1419.964C2048.948,1421.966 2047.751,1423.702 2046.203,1425.172C2044.655,1426.642 2042.81,1427.799 2040.667,1428.644C2038.524,1429.488 2036.171,1429.91 2033.606,1429.91L2020.798,1429.91L2020.798,1397.069ZM2106.824,1430.38C2104.322,1430.38 2101.866,1429.95 2099.458,1429.09C2097.049,1428.229 2094.86,1426.908 2092.89,1425.125L2097.159,1420.011C2098.66,1421.231 2100.201,1422.201 2101.78,1422.92C2103.36,1423.639 2105.088,1423.999 2106.964,1423.999C2108.466,1423.999 2109.631,1423.725 2110.46,1423.178C2111.289,1422.63 2111.703,1421.872 2111.703,1420.902L2111.703,1420.809C2111.703,1420.34 2111.617,1419.925 2111.445,1419.566C2111.273,1419.206 2110.945,1418.869 2110.46,1418.556C2109.967,1418.244 2109.294,1417.931 2108.435,1417.618C2107.574,1417.306 2106.448,1416.977 2105.072,1416.633C2103.407,1416.226 2101.905,1415.773 2100.552,1415.272C2099.208,1414.772 2098.058,1414.154 2097.12,1413.419C2096.182,1412.685 2095.446,1411.769 2094.93,1410.675C2094.414,1409.58 2094.156,1408.219 2094.156,1406.593L2094.156,1406.499C2094.156,1404.998 2094.438,1403.645 2094.993,1402.441C2095.556,1401.236 2096.338,1400.197 2097.346,1399.321C2098.356,1398.445 2099.567,1397.773 2100.967,1397.303C2102.366,1396.834 2103.915,1396.6 2105.604,1396.6C2108.012,1396.6 2110.225,1396.959 2112.242,1397.679C2114.26,1398.398 2116.113,1399.431 2117.802,1400.775L2114.049,1406.218C2112.579,1405.217 2111.14,1404.427 2109.732,1403.848C2108.325,1403.27 2106.917,1402.98 2105.51,1402.98C2104.102,1402.98 2103.047,1403.254 2102.343,1403.801C2101.64,1404.349 2101.287,1405.029 2101.287,1405.842L2101.287,1405.936C2101.287,1406.468 2101.389,1406.929 2101.592,1407.32C2101.796,1407.711 2102.163,1408.063 2102.695,1408.376C2103.234,1408.688 2103.962,1408.986 2104.885,1409.267C2105.815,1409.548 2106.98,1409.877 2108.388,1410.253C2110.053,1410.691 2111.539,1411.183 2112.837,1411.73C2114.135,1412.278 2115.237,1412.934 2116.128,1413.701C2117.02,1414.467 2117.701,1415.366 2118.154,1416.399C2118.607,1417.431 2118.834,1418.666 2118.834,1420.105L2118.834,1420.199C2118.834,1421.825 2118.537,1423.272 2117.951,1424.538C2117.356,1425.806 2116.535,1426.869 2115.48,1427.729C2114.424,1428.589 2113.157,1429.246 2111.695,1429.699C2110.233,1430.153 2108.606,1430.38 2106.824,1430.38" style="fill:rgb(28,25,23);fill-rule:nonzero;"/>
        </g>
    </g>
</svg>
